<?xml version="1.0" encoding="UTF-8" standalone="no" ?>
<!DOCTYPE svg PUBLIC "-//W3C//DTD SVG 1.1//EN" "http://www.w3.org/Graphics/SVG/1.1/DTD/svg11.dtd">
<svg xmlns="http://www.w3.org/2000/svg" xmlns:xlink="http://www.w3.org/1999/xlink" version="1.1" width="1280" height="1024" viewBox="0 0 1280 1024" xml:space="preserve">
<desc>Created with Fabric.js 5.3.0</desc>
<defs>
</defs>
<g transform="matrix(1 0 0 1 640 512)" id="background-logo"  >
<rect style="stroke: none; stroke-width: 0; stroke-dasharray: none; stroke-linecap: butt; stroke-dashoffset: 0; stroke-linejoin: miter; stroke-miterlimit: 4; fill: rgb(255,255,255); fill-opacity: 0; fill-rule: nonzero; opacity: 1;"  paint-order="stroke"  x="-640" y="-512" rx="0" ry="0" width="1280" height="1024" />
</g>
<g transform="matrix(1.9211538461538462 0 0 1.9211538461538462 739.0596225048989 485.54396833345396)" id="text-logo"  >
<g style=""  paint-order="stroke"   >
		<g transform="matrix(1 0 0 1 0 0)" id="text-logo-path-0"  >
<path style="stroke: none; stroke-width: 0; stroke-dasharray: none; stroke-linecap: butt; stroke-dashoffset: 0; stroke-linejoin: miter; stroke-miterlimit: 4; fill: rgb(53,92,151); fill-rule: nonzero; opacity: 1;"  paint-order="stroke"  transform=" translate(-140.52499999999998, 21.830000000000002)" d="M 30.67 -46.51 L 30.67 -22.85 L 15.57 -46.51 L 4.22 -46.51 L 4.22 0 L 15.57 0 L 15.57 -26.59 L 32.57 0 L 42.02 0 L 42.02 -46.51 Z M 92.62 0 L 104.72 0 L 87.65 -46.51 L 75.55 -46.51 L 58.55 0 L 70.65 0 L 73.64 -8.09 L 89.62 -8.09 Z M 77.52 -18.84 L 81.67 -30.06 L 85.68 -18.84 Z M 146.27 -35.77 L 146.27 -46.51 L 111.52 -46.51 L 111.52 -35.77 L 123.28 -35.77 L 123.28 0 L 134.57 0 L 134.57 -35.77 Z M 164.7 -46.51 L 164.7 0 L 176.05 0 L 176.05 -46.51 Z M 231.54 -1.97 L 236.84 3.33 L 244.8 -4.62 L 239.9 -9.59 C 242.62 -13.67 243.98 -18.16 243.98 -23.05 C 243.98 -36.45 233.31 -46.99 220.05 -46.99 C 206.72 -46.99 196.04 -36.24 196.04 -23.05 C 196.04 -9.79 206.92 0.95 220.05 0.95 C 224.06 0.95 227.94 0 231.54 -1.97 Z M 207.33 -23.05 C 207.33 -29.99 213.18 -35.7 220.05 -35.7 C 227.05 -35.7 232.63 -29.99 232.63 -23.05 C 232.63 -21.28 232.29 -19.58 231.61 -17.88 L 226.64 -22.78 L 218.69 -14.82 L 222.77 -10.74 C 221.82 -10.54 220.86 -10.4 220.05 -10.4 C 213.11 -10.4 207.33 -16.18 207.33 -23.05 Z M 265.47 -46.51 L 265.47 0 L 276.83 0 L 276.83 -46.51 Z" stroke-linecap="round" />
</g>
</g>
</g>
<g transform="matrix(1.9211538461538462 0 0 1.9211538461538462 820.264266826923 582.2898498108691)" id="tagline-23d5275b-98fd-424a-8043-9db1dc0e9295-logo"  >
<g style=""  paint-order="stroke"   >
		<g transform="matrix(1 0 0 1 0 0)" id="tagline-23d5275b-98fd-424a-8043-9db1dc0e9295-logo-path-0"  >
<path style="stroke: none; stroke-width: 0; stroke-dasharray: none; stroke-linecap: butt; stroke-dashoffset: 0; stroke-linejoin: miter; stroke-miterlimit: 4; fill: rgb(76,192,126); fill-rule: nonzero; opacity: 1;"  paint-order="stroke"  transform=" translate(-179.76, 8.75)" d="M 2 -17.5 L 2 0 L 4 0 L 4 -14.48 L 10 0 L 12 0 L 18 -14.48 L 18 0 L 20 0 L 20 -17.5 L 17.25 -17.5 L 11 -2.43 L 4.75 -17.5 Z M 33.52 -17.5 L 33.52 0 L 35.52 0 L 35.52 -17.5 Z M 49.05 -17.5 L 49.05 0 L 51.05 0 L 51.05 -13.8 L 62.3 0 L 63.55 0 L 63.55 -17.5 L 61.55 -17.5 L 61.55 -4.08 L 50.55 -17.5 Z M 77.08 -17.5 L 77.08 0 L 82.33 0 C 87.28 0 91.33 -3.8 91.33 -8.75 C 91.33 -13.7 87.28 -17.5 82.33 -17.5 Z M 79.08 -1.88 L 79.08 -15.63 L 82.33 -15.63 C 86.4 -15.63 89.33 -12.95 89.33 -8.75 C 89.33 -4.55 86.4 -1.88 82.33 -1.88 Z M 122.68 0 L 124.68 0 L 124.68 -15.63 L 130.18 -15.63 L 130.18 -17.5 L 117.18 -17.5 L 117.18 -15.63 L 122.68 -15.63 Z M 149 -1.63 C 144.93 -1.63 142 -4.55 142 -8.75 C 142 -12.95 144.93 -15.88 149 -15.88 C 153.08 -15.88 156 -12.95 156 -8.75 C 156 -4.55 153.08 -1.63 149 -1.63 Z M 149 0.25 C 153.95 0.25 158 -3.8 158 -8.75 C 158 -13.7 153.95 -17.75 149 -17.75 C 144.05 -17.75 140 -13.7 140 -8.75 C 140 -3.8 144.05 0.25 149 0.25 Z M 185.13 -17.5 L 185.13 0 L 187.13 0 L 187.13 -14.48 L 193.13 0 L 195.13 0 L 201.13 -14.48 L 201.13 0 L 203.13 0 L 203.13 -17.5 L 200.38 -17.5 L 194.13 -2.43 L 187.88 -17.5 Z M 216.65 -17.5 L 216.65 0 L 228.9 0 L 228.9 -1.88 L 218.65 -1.88 L 218.65 -7.83 L 226.4 -7.83 L 226.4 -9.7 L 218.65 -9.7 L 218.65 -15.63 L 228.9 -15.63 L 228.9 -17.5 Z M 242.05 -4.78 L 240.25 -3.98 C 241.35 -1.6 243.83 0.25 246.85 0.25 C 251.05 0.25 253.4 -2.45 253.4 -4.85 C 253.4 -8.25 249.75 -9.13 246.95 -9.9 C 244.43 -10.6 242.53 -11.2 242.53 -12.95 C 242.53 -14.68 244.63 -15.88 246.43 -15.88 C 249.48 -15.85 250.33 -14.48 250.88 -13.1 L 252.73 -13.8 C 252.1 -15.38 250.73 -17.75 246.43 -17.75 C 243.8 -17.73 240.53 -15.98 240.53 -12.95 C 240.53 -9.8 243.7 -8.85 246.4 -8.1 C 249.2 -7.33 251.4 -6.78 251.4 -4.85 C 251.4 -3.4 249.83 -1.63 246.85 -1.63 C 244.7 -1.63 242.9 -2.95 242.05 -4.78 Z M 266.5 -4.78 L 264.7 -3.98 C 265.8 -1.6 268.28 0.25 271.3 0.25 C 275.5 0.25 277.85 -2.45 277.85 -4.85 C 277.85 -8.25 274.2 -9.13 271.4 -9.9 C 268.88 -10.6 266.98 -11.2 266.98 -12.95 C 266.98 -14.68 269.08 -15.88 270.88 -15.88 C 273.93 -15.85 274.78 -14.48 275.33 -13.1 L 277.18 -13.8 C 276.55 -15.38 275.18 -17.75 270.88 -17.75 C 268.25 -17.73 264.98 -15.98 264.98 -12.95 C 264.98 -9.8 268.15 -8.85 270.85 -8.1 C 273.65 -7.33 275.85 -6.78 275.85 -4.85 C 275.85 -3.4 274.28 -1.63 271.3 -1.63 C 269.15 -1.63 267.35 -2.95 266.5 -4.78 Z M 295.95 -17.5 L 288.95 0 L 291.05 0 L 292.78 -4.33 L 301.83 -4.33 L 303.55 0 L 305.65 0 L 298.65 -17.5 Z M 293.53 -6.2 L 297.3 -15.63 L 301.08 -6.2 Z M 324.18 0.25 C 326.6 0.25 328.8 -0.73 330.45 -2.33 L 330.45 0 L 332.45 0 L 332.45 -8.63 L 324.45 -8.63 L 324.45 -6.75 L 330.45 -6.75 L 330.45 -5.45 C 329.33 -3.2 327 -1.63 324.18 -1.63 C 320.1 -1.63 317.18 -4.55 317.18 -8.75 C 317.18 -12.95 320.1 -15.88 324.18 -15.88 C 326.43 -15.88 328.33 -14.98 329.58 -13.48 L 331.05 -14.55 C 329.4 -16.5 326.93 -17.75 324.18 -17.75 C 319.23 -17.75 315.18 -13.7 315.18 -8.75 C 315.18 -3.8 319.23 0.25 324.18 0.25 Z M 345.27 -17.5 L 345.27 0 L 357.52 0 L 357.52 -1.88 L 347.27 -1.88 L 347.27 -7.83 L 355.02 -7.83 L 355.02 -9.7 L 347.27 -9.7 L 347.27 -15.63 L 357.52 -15.63 L 357.52 -17.5 Z" stroke-linecap="round" />
</g>
</g>
</g>
<g transform="matrix(1.478570172930099 0 0 1.478570172930099 261.004375 512)" id="logo-logo"  >
<g style=""  paint-order="stroke"   >
		<g transform="matrix(0.13969388305202007 0 0 -0.13969388305202007 47.22617134951332 -27.338721535754047)"  >
<linearGradient id="SVGID_442030_209707" gradientUnits="userSpaceOnUse" gradientTransform="matrix(-966.067 -1021.13 -1021.13 966.067 1416.48 1312.71)"  x1="0" y1="0" x2="1" y2="0">
<stop offset="0%" style="stop-color:rgb(100,199,124);stop-opacity: 1"/>
<stop offset="40.1188%" style="stop-color:rgb(58,186,127);stop-opacity: 1"/>
<stop offset="100%" style="stop-color:rgb(53,90,151);stop-opacity: 1"/>
</linearGradient>
<path style="stroke: none; stroke-width: 1; stroke-dasharray: none; stroke-linecap: butt; stroke-dashoffset: 0; stroke-linejoin: miter; stroke-miterlimit: 4; fill: url(#SVGID_442030_209707); fill-rule: nonzero; opacity: 1;"  paint-order="stroke"  transform=" translate(-1063.069, -912.2045)" d="M 1290.22 1053.76 L 1290.22 922.613 L 835.918 635.699 L 1056.37 1188.71 L 1290.22 1053.76" stroke-linecap="round" />
</g>
		<g transform="matrix(0.13969388305202007 0 0 -0.13969388305202007 42.37418370946756 22.712716690321514)"  >
<linearGradient id="SVGID_442031_209708" gradientUnits="userSpaceOnUse" gradientTransform="matrix(-966.067 -1021.13 -1021.13 966.067 1678.82 1064.52)"  x1="0" y1="0" x2="1" y2="0">
<stop offset="0%" style="stop-color:rgb(100,199,124);stop-opacity: 1"/>
<stop offset="40.1188%" style="stop-color:rgb(58,186,127);stop-opacity: 1"/>
<stop offset="100%" style="stop-color:rgb(53,90,151);stop-opacity: 1"/>
</linearGradient>
<path style="stroke: none; stroke-width: 1; stroke-dasharray: none; stroke-linecap: butt; stroke-dashoffset: 0; stroke-linejoin: miter; stroke-miterlimit: 4; fill: url(#SVGID_442031_209708); fill-rule: nonzero; opacity: 1;"  paint-order="stroke"  transform=" translate(-1028.336, -553.9108)" d="M 1290.22 853.137 L 606.672 170.391 L 736.816 95.1016 L 1290.22 414.66 L 1290.22 629.09 L 1450 1012.72 L 1290.22 853.137" stroke-linecap="round" />
</g>
		<g transform="matrix(0.13969388305202007 0 0 -0.13969388305202007 -37.003652375532624 42.64099902609689)"  >
<linearGradient id="SVGID_442032_209709" gradientUnits="userSpaceOnUse" gradientTransform="matrix(-966.067 -1021.13 -1021.13 966.067 1306.1 1417.13)"  x1="0" y1="0" x2="1" y2="0">
<stop offset="0%" style="stop-color:rgb(100,199,124);stop-opacity: 1"/>
<stop offset="40.1188%" style="stop-color:rgb(58,186,127);stop-opacity: 1"/>
<stop offset="100%" style="stop-color:rgb(53,90,151);stop-opacity: 1"/>
</linearGradient>
<path style="stroke: none; stroke-width: 1; stroke-dasharray: none; stroke-linecap: butt; stroke-dashoffset: 0; stroke-linejoin: miter; stroke-miterlimit: 4; fill: url(#SVGID_442032_209709); fill-rule: nonzero; opacity: 1;"  paint-order="stroke"  transform=" translate(-460.109, -411.254)" d="M 422.266 483.934 L 485.535 822.508 L 183.402 635.699 L 183.402 414.66 L 387.227 296.93 L 348.785 0 L 480.73 242.871 L 736.816 714.188 L 422.266 483.934" stroke-linecap="round" />
</g>
		<g transform="matrix(0.13969388305202007 0 0 -0.13969388305202007 -19.068215036600748 -40.092144435929754)"  >
<linearGradient id="SVGID_442033_209710" gradientUnits="userSpaceOnUse" gradientTransform="matrix(-966.067 -1021.13 -1021.13 966.067 1062.34 1647.76)"  x1="0" y1="0" x2="1" y2="0">
<stop offset="0%" style="stop-color:rgb(100,199,124);stop-opacity: 1"/>
<stop offset="40.1188%" style="stop-color:rgb(58,186,127);stop-opacity: 1"/>
<stop offset="100%" style="stop-color:rgb(53,90,151);stop-opacity: 1"/>
</linearGradient>
<path style="stroke: none; stroke-width: 1; stroke-dasharray: none; stroke-linecap: butt; stroke-dashoffset: 0; stroke-linejoin: miter; stroke-miterlimit: 4; fill: url(#SVGID_442033_209710); fill-rule: nonzero; opacity: 1;"  paint-order="stroke"  transform=" translate(-588.5, -1003.5)" d="M 0 574 L 0 576 L 1 576 L 1 578 L 2 578 L 2 580 L 3 580 L 3 581 L 4 581 L 4 583 L 5 583 L 5 585 L 6 585 L 6 587 L 7 587 L 7 588 L 8 588 L 8 590 L 9 590 L 9 592 L 10 592 L 10 594 L 11 594 L 11 595 L 12 595 L 12 597 L 13 597 L 13 599 L 14 599 L 14 601 L 15 601 L 15 602 L 16 602 L 16 604 L 17 604 L 17 606 L 18 606 L 18 608 L 19 608 L 19 609 L 20 609 L 20 611 L 21 611 L 21 613 L 22 613 L 22 615 L 23 615 L 23 616 L 24 616 L 24 618 L 25 618 L 25 620 L 26 620 L 26 622 L 27 622 L 27 623 L 28 623 L 28 625 L 29 625 L 29 627 L 30 627 L 30 629 L 31 629 L 31 630 L 32 630 L 32 632 L 33 632 L 33 634 L 34 634 L 34 636 L 35 636 L 35 637 L 36 637 L 36 639 L 37 639 L 37 641 L 38 641 L 38 642 L 39 642 L 39 644 L 40 644 L 40 646 L 41 646 L 41 648 L 42 648 L 42 649 L 43 649 L 43 651 L 44 651 L 44 653 L 45 653 L 45 655 L 46 655 L 46 656 L 47 656 L 47 658 L 48 658 L 48 660 L 49 660 L 49 662 L 50 662 L 50 663 L 51 663 L 51 665 L 52 665 L 52 667 L 53 667 L 53 669 L 54 669 L 54 670 L 55 670 L 55 672 L 56 672 L 56 674 L 57 674 L 57 676 L 58 676 L 58 677 L 59 677 L 59 679 L 60 679 L 60 681 L 61 681 L 61 683 L 62 683 L 62 684 L 63 684 L 63 686 L 64 686 L 64 688 L 65 688 L 65 690 L 66 690 L 66 691 L 67 691 L 67 693 L 68 693 L 68 695 L 69 695 L 69 696 L 70 696 L 70 698 L 71 698 L 71 700 L 72 700 L 72 702 L 73 702 L 73 703 L 74 703 L 74 705 L 75 705 L 75 707 L 76 707 L 76 709 L 77 709 L 77 710 L 78 710 L 78 712 L 79 712 L 79 714 L 80 714 L 80 716 L 81 716 L 81 717 L 82 717 L 82 719 L 83 719 L 83 721 L 84 721 L 84 723 L 85 723 L 85 724 L 86 724 L 86 726 L 87 726 L 87 728 L 88 728 L 88 730 L 89 730 L 89 731 L 90 731 L 90 733 L 91 733 L 91 735 L 92 735 L 92 737 L 93 737 L 93 738 L 94 738 L 94 740 L 95 740 L 95 742 L 96 742 L 96 744 L 97 744 L 97 745 L 98 745 L 98 747 L 99 747 L 99 749 L 100 749 L 100 751 L 101 751 L 101 752 L 102 752 L 102 754 L 103 754 L 103 756 L 104 756 L 104 757 L 105 757 L 105 759 L 106 759 L 106 761 L 107 761 L 107 763 L 108 763 L 108 764 L 109 764 L 109 766 L 110 766 L 110 768 L 111 768 L 111 770 L 112 770 L 112 771 L 113 771 L 113 773 L 114 773 L 114 775 L 115 775 L 115 777 L 116 777 L 116 778 L 117 778 L 117 780 L 118 780 L 118 782 L 119 782 L 119 784 L 120 784 L 120 785 L 121 785 L 121 787 L 122 787 L 122 789 L 123 789 L 123 791 L 124 791 L 124 792 L 125 792 L 125 794 L 126 794 L 126 796 L 127 796 L 127 798 L 128 798 L 128 799 L 129 799 L 129 801 L 130 801 L 130 803 L 131 803 L 131 805 L 132 805 L 132 806 L 133 806 L 133 808 L 134 808 L 134 810 L 135 810 L 135 811 L 136 811 L 136 813 L 137 813 L 137 815 L 138 815 L 138 817 L 139 817 L 139 818 L 140 818 L 140 820 L 141 820 L 141 822 L 142 822 L 142 824 L 143 824 L 143 825 L 144 825 L 144 827 L 145 827 L 145 829 L 146 829 L 146 831 L 147 831 L 147 832 L 148 832 L 148 834 L 149 834 L 149 836 L 150 836 L 150 838 L 151 838 L 151 839 L 152 839 L 152 841 L 153 841 L 153 843 L 154 843 L 154 845 L 155 845 L 155 846 L 156 846 L 156 848 L 157 848 L 157 850 L 158 850 L 158 852 L 159 852 L 159 853 L 160 853 L 160 855 L 161 855 L 161 857 L 162 857 L 162 859 L 163 859 L 163 860 L 164 860 L 164 862 L 165 862 L 165 864 L 166 864 L 166 866 L 167 866 L 167 867 L 168 867 L 168 869 L 169 869 L 169 871 L 170 871 L 170 872 L 171 872 L 171 874 L 172 874 L 172 876 L 173 876 L 173 878 L 174 878 L 174 879 L 175 879 L 175 881 L 176 881 L 176 883 L 177 883 L 177 885 L 178 885 L 178 886 L 179 886 L 179 888 L 180 888 L 180 890 L 181 890 L 181 892 L 182 892 L 182 893 L 183 893 L 183 1055 L 185 1055 L 185 1056 L 187 1056 L 187 1057 L 189 1057 L 189 1058 L 190 1058 L 190 1059 L 192 1059 L 192 1060 L 194 1060 L 194 1061 L 195 1061 L 195 1062 L 197 1062 L 197 1063 L 199 1063 L 199 1064 L 201 1064 L 201 1065 L 202 1065 L 202 1066 L 204 1066 L 204 1067 L 206 1067 L 206 1068 L 208 1068 L 208 1069 L 209 1069 L 209 1070 L 211 1070 L 211 1071 L 213 1071 L 213 1072 L 214 1072 L 214 1073 L 216 1073 L 216 1074 L 218 1074 L 218 1075 L 220 1075 L 220 1076 L 221 1076 L 221 1077 L 223 1077 L 223 1078 L 225 1078 L 225 1079 L 227 1079 L 227 1080 L 228 1080 L 228 1081 L 230 1081 L 230 1082 L 232 1082 L 232 1083 L 234 1083 L 234 1084 L 235 1084 L 235 1085 L 237 1085 L 237 1086 L 239 1086 L 239 1087 L 240 1087 L 240 1088 L 242 1088 L 242 1089 L 244 1089 L 244 1090 L 246 1090 L 246 1091 L 247 1091 L 247 1092 L 249 1092 L 249 1093 L 251 1093 L 251 1094 L 253 1094 L 253 1095 L 254 1095 L 254 1096 L 256 1096 L 256 1097 L 258 1097 L 258 1098 L 260 1098 L 260 1099 L 261 1099 L 261 1100 L 263 1100 L 263 1101 L 265 1101 L 265 1102 L 266 1102 L 266 1103 L 268 1103 L 268 1104 L 270 1104 L 270 1105 L 272 1105 L 272 1106 L 273 1106 L 273 1107 L 275 1107 L 275 1108 L 277 1108 L 277 1109 L 279 1109 L 279 1110 L 280 1110 L 280 1111 L 282 1111 L 282 1112 L 284 1112 L 284 1113 L 285 1113 L 285 1114 L 287 1114 L 287 1115 L 289 1115 L 289 1116 L 291 1116 L 291 1117 L 292 1117 L 292 1118 L 294 1118 L 294 1119 L 296 1119 L 296 1120 L 298 1120 L 298 1121 L 299 1121 L 299 1122 L 301 1122 L 301 1123 L 303 1123 L 303 1124 L 305 1124 L 305 1125 L 306 1125 L 306 1126 L 308 1126 L 308 1127 L 310 1127 L 310 1128 L 311 1128 L 311 1129 L 313 1129 L 313 1130 L 315 1130 L 315 1131 L 317 1131 L 317 1132 L 318 1132 L 318 1133 L 320 1133 L 320 1134 L 322 1134 L 322 1135 L 324 1135 L 324 1136 L 325 1136 L 325 1137 L 327 1137 L 327 1138 L 329 1138 L 329 1139 L 331 1139 L 331 1140 L 332 1140 L 332 1141 L 334 1141 L 334 1142 L 336 1142 L 336 1143 L 337 1143 L 337 1144 L 339 1144 L 339 1145 L 341 1145 L 341 1146 L 343 1146 L 343 1147 L 344 1147 L 344 1148 L 346 1148 L 346 1149 L 348 1149 L 348 1150 L 350 1150 L 350 1151 L 351 1151 L 351 1152 L 353 1152 L 353 1153 L 355 1153 L 355 1154 L 357 1154 L 357 1155 L 358 1155 L 358 1156 L 360 1156 L 360 1157 L 362 1157 L 362 1158 L 363 1158 L 363 1159 L 365 1159 L 365 1160 L 367 1160 L 367 1161 L 369 1161 L 369 1162 L 370 1162 L 370 1163 L 372 1163 L 372 1164 L 374 1164 L 374 1165 L 376 1165 L 376 1166 L 377 1166 L 377 1167 L 379 1167 L 379 1168 L 381 1168 L 381 1169 L 382 1169 L 382 1170 L 384 1170 L 384 1171 L 386 1171 L 386 1172 L 388 1172 L 388 1173 L 389 1173 L 389 1174 L 391 1174 L 391 1175 L 393 1175 L 393 1176 L 395 1176 L 395 1177 L 396 1177 L 396 1178 L 398 1178 L 398 1179 L 400 1179 L 400 1180 L 402 1180 L 402 1181 L 403 1181 L 403 1182 L 405 1182 L 405 1183 L 407 1183 L 407 1184 L 408 1184 L 408 1185 L 410 1185 L 410 1186 L 412 1186 L 412 1187 L 414 1187 L 414 1188 L 415 1188 L 415 1189 L 417 1189 L 417 1190 L 419 1190 L 419 1191 L 421 1191 L 421 1192 L 422 1192 L 422 1193 L 424 1193 L 424 1194 L 426 1194 L 426 1195 L 428 1195 L 428 1196 L 429 1196 L 429 1197 L 431 1197 L 431 1198 L 433 1198 L 433 1199 L 434 1199 L 434 1200 L 436 1200 L 436 1201 L 438 1201 L 438 1202 L 440 1202 L 440 1203 L 441 1203 L 441 1204 L 443 1204 L 443 1205 L 445 1205 L 445 1206 L 447 1206 L 447 1207 L 448 1207 L 448 1208 L 450 1208 L 450 1209 L 452 1209 L 452 1210 L 453 1210 L 453 1211 L 455 1211 L 455 1212 L 457 1212 L 457 1213 L 459 1213 L 459 1214 L 460 1214 L 460 1215 L 462 1215 L 462 1216 L 464 1216 L 464 1217 L 466 1217 L 466 1218 L 467 1218 L 467 1219 L 469 1219 L 469 1220 L 471 1220 L 471 1221 L 473 1221 L 473 1222 L 474 1222 L 474 1223 L 476 1223 L 476 1224 L 478 1224 L 478 1225 L 479 1225 L 479 1226 L 481 1226 L 481 1227 L 483 1227 L 483 1228 L 485 1228 L 485 1229 L 486 1229 L 486 1230 L 488 1230 L 488 1231 L 490 1231 L 490 1232 L 492 1232 L 492 1233 L 493 1233 L 493 1234 L 495 1234 L 495 1235 L 497 1235 L 497 1236 L 499 1236 L 499 1237 L 500 1237 L 500 1238 L 502 1238 L 502 1239 L 504 1239 L 504 1240 L 505 1240 L 505 1241 L 507 1241 L 507 1242 L 509 1242 L 509 1243 L 511 1243 L 511 1244 L 512 1244 L 512 1245 L 514 1245 L 514 1246 L 516 1246 L 516 1247 L 518 1247 L 518 1248 L 519 1248 L 519 1249 L 521 1249 L 521 1250 L 523 1250 L 523 1251 L 524 1251 L 524 1252 L 526 1252 L 526 1253 L 528 1253 L 528 1254 L 530 1254 L 530 1255 L 531 1255 L 531 1256 L 533 1256 L 533 1257 L 535 1257 L 535 1258 L 537 1258 L 537 1259 L 538 1259 L 538 1260 L 540 1260 L 540 1261 L 542 1261 L 542 1262 L 544 1262 L 544 1263 L 545 1263 L 545 1264 L 547 1264 L 547 1265 L 549 1265 L 549 1266 L 550 1266 L 550 1267 L 552 1267 L 552 1268 L 554 1268 L 554 1269 L 556 1269 L 556 1270 L 557 1270 L 557 1271 L 559 1271 L 559 1272 L 561 1272 L 561 1273 L 563 1273 L 563 1274 L 564 1274 L 564 1275 L 566 1275 L 566 1276 L 568 1276 L 568 1277 L 570 1277 L 570 1278 L 571 1278 L 571 1279 L 573 1279 L 573 1280 L 575 1280 L 575 1281 L 576 1281 L 576 1282 L 578 1282 L 578 1283 L 580 1283 L 580 1284 L 582 1284 L 582 1285 L 583 1285 L 583 1286 L 585 1286 L 585 1287 L 587 1287 L 587 1288 L 589 1288 L 589 1289 L 590 1289 L 590 1290 L 592 1290 L 592 1291 L 594 1291 L 594 1292 L 595 1292 L 595 1293 L 597 1293 L 597 1294 L 599 1294 L 599 1295 L 601 1295 L 601 1296 L 602 1296 L 602 1297 L 604 1297 L 604 1298 L 606 1298 L 606 1299 L 608 1299 L 608 1300 L 609 1300 L 609 1301 L 611 1301 L 611 1302 L 613 1302 L 613 1303 L 615 1303 L 615 1304 L 616 1304 L 616 1305 L 618 1305 L 618 1306 L 620 1306 L 620 1307 L 621 1307 L 621 1308 L 623 1308 L 623 1309 L 625 1309 L 625 1310 L 627 1310 L 627 1311 L 628 1311 L 628 1312 L 630 1312 L 630 1313 L 632 1313 L 632 1314 L 634 1314 L 634 1315 L 635 1315 L 635 1316 L 637 1316 L 637 1317 L 639 1317 L 639 1318 L 641 1318 L 641 1319 L 642 1319 L 642 1320 L 644 1320 L 644 1321 L 646 1321 L 646 1322 L 647 1322 L 647 1323 L 649 1323 L 649 1324 L 651 1324 L 651 1325 L 653 1325 L 653 1326 L 654 1326 L 654 1327 L 656 1327 L 656 1328 L 658 1328 L 658 1329 L 660 1329 L 660 1330 L 661 1330 L 661 1331 L 663 1331 L 663 1332 L 665 1332 L 665 1333 L 667 1333 L 667 1334 L 668 1334 L 668 1335 L 670 1335 L 670 1336 L 672 1336 L 672 1337 L 673 1337 L 673 1338 L 675 1338 L 675 1339 L 677 1339 L 677 1340 L 679 1340 L 679 1341 L 680 1341 L 680 1342 L 682 1342 L 682 1343 L 684 1343 L 684 1344 L 686 1344 L 686 1345 L 687 1345 L 687 1346 L 689 1346 L 689 1347 L 691 1347 L 691 1348 L 692 1348 L 692 1349 L 694 1349 L 694 1350 L 696 1350 L 696 1351 L 698 1351 L 698 1352 L 699 1352 L 699 1353 L 701 1353 L 701 1354 L 703 1354 L 703 1355 L 705 1355 L 705 1356 L 706 1356 L 706 1357 L 708 1357 L 708 1358 L 710 1358 L 710 1359 L 712 1359 L 712 1360 L 713 1360 L 713 1361 L 715 1361 L 715 1362 L 717 1362 L 717 1363 L 718 1363 L 718 1364 L 720 1364 L 720 1365 L 722 1365 L 722 1366 L 724 1366 L 724 1367 L 725 1367 L 725 1368 L 727 1368 L 727 1369 L 729 1369 L 729 1370 L 731 1370 L 731 1371 L 732 1371 L 732 1372 L 734 1372 L 734 1373 L 736 1373 L 736 1374 L 738 1374 L 738 1373 L 740 1373 L 740 1372 L 741 1372 L 741 1371 L 743 1371 L 743 1370 L 745 1370 L 745 1369 L 747 1369 L 747 1368 L 748 1368 L 748 1367 L 750 1367 L 750 1366 L 752 1366 L 752 1365 L 753 1365 L 753 1364 L 755 1364 L 755 1363 L 757 1363 L 757 1362 L 759 1362 L 759 1361 L 760 1361 L 760 1360 L 762 1360 L 762 1359 L 764 1359 L 764 1358 L 766 1358 L 766 1357 L 767 1357 L 767 1356 L 769 1356 L 769 1355 L 771 1355 L 771 1354 L 772 1354 L 772 1353 L 774 1353 L 774 1352 L 776 1352 L 776 1351 L 778 1351 L 778 1350 L 779 1350 L 779 1349 L 781 1349 L 781 1348 L 783 1348 L 783 1347 L 785 1347 L 785 1346 L 786 1346 L 786 1345 L 788 1345 L 788 1344 L 790 1344 L 790 1343 L 792 1343 L 792 1342 L 793 1342 L 793 1341 L 795 1341 L 795 1340 L 797 1340 L 797 1339 L 798 1339 L 798 1338 L 800 1338 L 800 1337 L 802 1337 L 802 1336 L 804 1336 L 804 1335 L 805 1335 L 805 1334 L 807 1334 L 807 1333 L 809 1333 L 809 1332 L 811 1332 L 811 1331 L 812 1331 L 812 1330 L 814 1330 L 814 1329 L 816 1329 L 816 1328 L 818 1328 L 818 1327 L 819 1327 L 819 1326 L 821 1326 L 821 1325 L 823 1325 L 823 1324 L 824 1324 L 824 1323 L 826 1323 L 826 1322 L 828 1322 L 828 1321 L 830 1321 L 830 1320 L 831 1320 L 831 1319 L 833 1319 L 833 1318 L 835 1318 L 835 1317 L 837 1317 L 837 1316 L 838 1316 L 838 1315 L 840 1315 L 840 1314 L 842 1314 L 842 1313 L 844 1313 L 844 1312 L 845 1312 L 845 1311 L 847 1311 L 847 1310 L 849 1310 L 849 1309 L 850 1309 L 850 1308 L 852 1308 L 852 1307 L 854 1307 L 854 1306 L 856 1306 L 856 1305 L 857 1305 L 857 1304 L 859 1304 L 859 1303 L 861 1303 L 861 1302 L 863 1302 L 863 1301 L 864 1301 L 864 1300 L 866 1300 L 866 1299 L 868 1299 L 868 1298 L 869 1298 L 869 1297 L 871 1297 L 871 1296 L 873 1296 L 873 1295 L 875 1295 L 875 1294 L 876 1294 L 876 1295 L 878 1295 L 878 1296 L 880 1296 L 880 1297 L 882 1297 L 882 1298 L 885 1298 L 885 1299 L 887 1299 L 887 1300 L 889 1300 L 889 1301 L 891 1301 L 891 1302 L 893 1302 L 893 1303 L 895 1303 L 895 1304 L 897 1304 L 897 1305 L 900 1305 L 900 1306 L 902 1306 L 902 1307 L 904 1307 L 904 1308 L 906 1308 L 906 1309 L 908 1309 L 908 1310 L 910 1310 L 910 1311 L 913 1311 L 913 1312 L 915 1312 L 915 1313 L 917 1313 L 917 1314 L 919 1314 L 919 1315 L 921 1315 L 921 1316 L 923 1316 L 923 1317 L 925 1317 L 925 1318 L 928 1318 L 928 1319 L 930 1319 L 930 1320 L 932 1320 L 932 1321 L 934 1321 L 934 1322 L 936 1322 L 936 1323 L 938 1323 L 938 1324 L 941 1324 L 941 1325 L 943 1325 L 943 1326 L 945 1326 L 945 1327 L 947 1327 L 947 1328 L 949 1328 L 949 1329 L 951 1329 L 951 1330 L 953 1330 L 953 1331 L 956 1331 L 956 1332 L 958 1332 L 958 1333 L 960 1333 L 960 1334 L 962 1334 L 962 1335 L 964 1335 L 964 1336 L 966 1336 L 966 1337 L 969 1337 L 969 1338 L 971 1338 L 971 1339 L 973 1339 L 973 1340 L 975 1340 L 975 1341 L 977 1341 L 977 1342 L 979 1342 L 979 1343 L 981 1343 L 981 1344 L 984 1344 L 984 1345 L 986 1345 L 986 1346 L 988 1346 L 988 1347 L 990 1347 L 990 1348 L 992 1348 L 992 1349 L 994 1349 L 994 1350 L 997 1350 L 997 1351 L 999 1351 L 999 1352 L 1001 1352 L 1001 1353 L 1003 1353 L 1003 1354 L 1005 1354 L 1005 1355 L 1007 1355 L 1007 1356 L 1010 1356 L 1010 1357 L 1012 1357 L 1012 1358 L 1014 1358 L 1014 1359 L 1016 1359 L 1016 1360 L 1018 1360 L 1018 1361 L 1020 1361 L 1020 1362 L 1022 1362 L 1022 1363 L 1025 1363 L 1025 1364 L 1027 1364 L 1027 1365 L 1029 1365 L 1029 1366 L 1031 1366 L 1031 1367 L 1033 1367 L 1033 1368 L 1035 1368 L 1035 1369 L 1038 1369 L 1038 1370 L 1040 1370 L 1040 1371 L 1042 1371 L 1042 1372 L 1044 1372 L 1044 1373 L 1046 1373 L 1046 1374 L 1048 1374 L 1048 1375 L 1050 1375 L 1050 1376 L 1053 1376 L 1053 1377 L 1055 1377 L 1055 1378 L 1057 1378 L 1057 1379 L 1059 1379 L 1059 1380 L 1061 1380 L 1061 1381 L 1063 1381 L 1063 1382 L 1066 1382 L 1066 1383 L 1068 1383 L 1068 1384 L 1070 1384 L 1070 1385 L 1072 1385 L 1072 1386 L 1074 1386 L 1074 1387 L 1076 1387 L 1076 1388 L 1078 1388 L 1078 1389 L 1081 1389 L 1081 1390 L 1083 1390 L 1083 1391 L 1085 1391 L 1085 1392 L 1087 1392 L 1087 1393 L 1089 1393 L 1089 1394 L 1091 1394 L 1091 1395 L 1094 1395 L 1094 1396 L 1096 1396 L 1096 1397 L 1098 1397 L 1098 1398 L 1100 1398 L 1100 1399 L 1102 1399 L 1102 1400 L 1104 1400 L 1104 1401 L 1106 1401 L 1106 1402 L 1109 1402 L 1109 1403 L 1111 1403 L 1111 1404 L 1113 1404 L 1113 1405 L 1115 1405 L 1115 1406 L 1117 1406 L 1117 1407 L 1119 1407 L 1119 1408 L 1122 1408 L 1122 1409 L 1124 1409 L 1124 1410 L 1126 1410 L 1126 1411 L 1128 1411 L 1128 1412 L 1130 1412 L 1130 1413 L 1132 1413 L 1132 1414 L 1134 1414 L 1134 1415 L 1137 1415 L 1137 1416 L 1139 1416 L 1139 1417 L 1141 1417 L 1141 1418 L 1143 1418 L 1143 1419 L 1145 1419 L 1145 1420 L 1147 1420 L 1147 1421 L 1150 1421 L 1150 1422 L 1152 1422 L 1152 1423 L 1154 1423 L 1154 1424 L 1156 1424 L 1156 1425 L 1158 1425 L 1158 1426 L 1160 1426 L 1160 1427 L 1162 1427 L 1162 1428 L 1165 1428 L 1165 1429 L 1167 1429 L 1167 1430 L 1169 1430 L 1169 1431 L 1171 1431 L 1171 1432 L 1173 1432 L 1173 1433 L 1177 1433 L 1177 1432 L 1176 1432 L 1176 1431 L 1175 1431 L 1175 1430 L 1174 1430 L 1174 1429 L 1173 1429 L 1173 1428 L 1172 1428 L 1172 1427 L 1171 1427 L 1171 1426 L 1170 1426 L 1170 1425 L 1169 1425 L 1169 1424 L 1168 1424 L 1168 1423 L 1167 1423 L 1167 1422 L 1166 1422 L 1166 1421 L 1165 1421 L 1165 1420 L 1164 1420 L 1164 1419 L 1163 1419 L 1163 1418 L 1162 1418 L 1162 1417 L 1161 1417 L 1161 1416 L 1160 1416 L 1160 1415 L 1159 1415 L 1159 1414 L 1158 1414 L 1158 1413 L 1157 1413 L 1157 1412 L 1156 1412 L 1156 1411 L 1155 1411 L 1155 1410 L 1154 1410 L 1154 1409 L 1153 1409 L 1153 1408 L 1152 1408 L 1152 1407 L 1151 1407 L 1151 1406 L 1150 1406 L 1150 1405 L 1149 1405 L 1149 1404 L 1148 1404 L 1148 1403 L 1147 1403 L 1147 1402 L 1146 1402 L 1146 1401 L 1145 1401 L 1145 1400 L 1144 1400 L 1144 1399 L 1143 1399 L 1143 1398 L 1142 1398 L 1142 1397 L 1141 1397 L 1141 1396 L 1140 1396 L 1140 1395 L 1139 1395 L 1139 1394 L 1138 1394 L 1138 1393 L 1137 1393 L 1137 1392 L 1136 1392 L 1136 1391 L 1135 1391 L 1135 1390 L 1134 1390 L 1134 1389 L 1133 1389 L 1133 1388 L 1132 1388 L 1132 1387 L 1131 1387 L 1131 1386 L 1130 1386 L 1130 1385 L 1129 1385 L 1129 1384 L 1128 1384 L 1128 1383 L 1127 1383 L 1127 1382 L 1126 1382 L 1126 1381 L 1125 1381 L 1125 1380 L 1124 1380 L 1124 1379 L 1123 1379 L 1123 1378 L 1122 1378 L 1122 1377 L 1121 1377 L 1121 1376 L 1120 1376 L 1120 1375 L 1119 1375 L 1119 1374 L 1118 1374 L 1118 1373 L 1117 1373 L 1117 1372 L 1116 1372 L 1116 1371 L 1115 1371 L 1115 1370 L 1114 1370 L 1114 1369 L 1113 1369 L 1113 1368 L 1112 1368 L 1112 1367 L 1111 1367 L 1111 1366 L 1110 1366 L 1110 1365 L 1109 1365 L 1109 1364 L 1108 1364 L 1108 1363 L 1107 1363 L 1107 1362 L 1106 1362 L 1106 1361 L 1105 1361 L 1105 1360 L 1104 1360 L 1104 1359 L 1103 1359 L 1103 1358 L 1102 1358 L 1102 1357 L 1101 1357 L 1101 1356 L 1100 1356 L 1100 1355 L 1099 1355 L 1099 1354 L 1098 1354 L 1098 1352 L 1097 1352 L 1097 1351 L 1096 1351 L 1096 1350 L 1095 1350 L 1095 1349 L 1094 1349 L 1094 1348 L 1093 1348 L 1093 1347 L 1092 1347 L 1092 1346 L 1091 1346 L 1091 1345 L 1090 1345 L 1090 1344 L 1089 1344 L 1089 1343 L 1088 1343 L 1088 1342 L 1087 1342 L 1087 1341 L 1086 1341 L 1086 1340 L 1085 1340 L 1085 1339 L 1084 1339 L 1084 1338 L 1083 1338 L 1083 1337 L 1082 1337 L 1082 1336 L 1081 1336 L 1081 1335 L 1080 1335 L 1080 1334 L 1079 1334 L 1079 1333 L 1078 1333 L 1078 1332 L 1077 1332 L 1077 1331 L 1076 1331 L 1076 1330 L 1075 1330 L 1075 1329 L 1074 1329 L 1074 1328 L 1073 1328 L 1073 1327 L 1072 1327 L 1072 1326 L 1071 1326 L 1071 1325 L 1070 1325 L 1070 1324 L 1069 1324 L 1069 1323 L 1068 1323 L 1068 1322 L 1067 1322 L 1067 1321 L 1066 1321 L 1066 1320 L 1065 1320 L 1065 1319 L 1064 1319 L 1064 1318 L 1063 1318 L 1063 1317 L 1062 1317 L 1062 1316 L 1061 1316 L 1061 1315 L 1060 1315 L 1060 1314 L 1059 1314 L 1059 1313 L 1058 1313 L 1058 1312 L 1057 1312 L 1057 1311 L 1056 1311 L 1056 1310 L 1055 1310 L 1055 1309 L 1054 1309 L 1054 1308 L 1053 1308 L 1053 1307 L 1052 1307 L 1052 1306 L 1051 1306 L 1051 1305 L 1050 1305 L 1050 1304 L 1049 1304 L 1049 1303 L 1048 1303 L 1048 1302 L 1047 1302 L 1047 1301 L 1046 1301 L 1046 1300 L 1045 1300 L 1045 1299 L 1044 1299 L 1044 1298 L 1043 1298 L 1043 1297 L 1042 1297 L 1042 1296 L 1041 1296 L 1041 1295 L 1040 1295 L 1040 1294 L 1039 1294 L 1039 1293 L 1038 1293 L 1038 1292 L 1037 1292 L 1037 1291 L 1036 1291 L 1036 1290 L 1035 1290 L 1035 1289 L 1034 1289 L 1034 1288 L 1033 1288 L 1033 1287 L 1032 1287 L 1032 1286 L 1031 1286 L 1031 1285 L 1030 1285 L 1030 1284 L 1029 1284 L 1029 1283 L 1028 1283 L 1028 1282 L 1027 1282 L 1027 1281 L 1026 1281 L 1026 1280 L 1025 1280 L 1025 1279 L 1024 1279 L 1024 1278 L 1023 1278 L 1023 1277 L 1022 1277 L 1022 1276 L 1021 1276 L 1021 1275 L 1020 1275 L 1020 1274 L 1019 1274 L 1019 1273 L 1018 1273 L 1018 1272 L 1017 1272 L 1017 1271 L 1016 1271 L 1016 1270 L 1015 1270 L 1015 1269 L 1014 1269 L 1014 1268 L 1013 1268 L 1013 1267 L 1012 1267 L 1012 1266 L 1011 1266 L 1011 1265 L 1010 1265 L 1010 1264 L 1009 1264 L 1009 1263 L 1008 1263 L 1008 1261 L 1007 1261 L 1007 1260 L 1006 1260 L 1006 1259 L 1005 1259 L 1005 1258 L 1004 1258 L 1004 1257 L 1003 1257 L 1003 1256 L 1002 1256 L 1002 1255 L 1001 1255 L 1001 1254 L 1000 1254 L 1000 1253 L 999 1253 L 999 1252 L 998 1252 L 998 1251 L 997 1251 L 997 1250 L 996 1250 L 996 1249 L 995 1249 L 995 1248 L 994 1248 L 994 1247 L 993 1247 L 993 1246 L 992 1246 L 992 1245 L 991 1245 L 991 1244 L 990 1244 L 990 1243 L 989 1243 L 989 1242 L 988 1242 L 988 1241 L 987 1241 L 987 1240 L 986 1240 L 986 1239 L 985 1239 L 985 1238 L 984 1238 L 984 1237 L 983 1237 L 983 1236 L 982 1236 L 982 1235 L 981 1235 L 981 1234 L 980 1234 L 980 1233 L 979 1233 L 979 1232 L 978 1232 L 978 1231 L 977 1231 L 977 1230 L 976 1230 L 976 1229 L 975 1229 L 975 1228 L 974 1228 L 974 1227 L 973 1227 L 973 1226 L 972 1226 L 972 1225 L 971 1225 L 971 1224 L 970 1224 L 970 1223 L 969 1223 L 969 1222 L 968 1222 L 968 1221 L 967 1221 L 967 1220 L 966 1220 L 966 1219 L 965 1219 L 965 1218 L 964 1218 L 964 1217 L 963 1217 L 963 1216 L 962 1216 L 962 1215 L 961 1215 L 961 1214 L 960 1214 L 960 1213 L 959 1213 L 959 1212 L 958 1212 L 958 1211 L 957 1211 L 957 1210 L 956 1210 L 956 1209 L 955 1209 L 955 1208 L 954 1208 L 954 1207 L 953 1207 L 953 1206 L 952 1206 L 952 1205 L 951 1205 L 951 1204 L 950 1204 L 950 1203 L 949 1203 L 949 1202 L 948 1202 L 948 1201 L 947 1201 L 947 1200 L 946 1200 L 946 1199 L 945 1199 L 945 1198 L 944 1198 L 944 1197 L 943 1197 L 943 1196 L 942 1196 L 942 1195 L 941 1195 L 941 1194 L 940 1194 L 940 1193 L 939 1193 L 939 1192 L 938 1192 L 938 1191 L 937 1191 L 937 1190 L 936 1190 L 936 1189 L 935 1189 L 935 1188 L 934 1188 L 934 1187 L 933 1187 L 933 1186 L 932 1186 L 932 1185 L 931 1185 L 931 1184 L 930 1184 L 930 1183 L 929 1183 L 929 1182 L 928 1182 L 928 1181 L 927 1181 L 927 1180 L 926 1180 L 926 1179 L 925 1179 L 925 1178 L 924 1178 L 924 1177 L 923 1177 L 923 1175 L 922 1175 L 922 1174 L 921 1174 L 921 1173 L 920 1173 L 920 1172 L 919 1172 L 919 1171 L 918 1171 L 918 1170 L 917 1170 L 917 1169 L 916 1169 L 916 1168 L 915 1168 L 915 1167 L 914 1167 L 914 1166 L 913 1166 L 913 1165 L 912 1165 L 912 1164 L 911 1164 L 911 1163 L 910 1163 L 910 1162 L 909 1162 L 909 1161 L 908 1161 L 908 1160 L 907 1160 L 907 1159 L 906 1159 L 906 1158 L 905 1158 L 905 1157 L 904 1157 L 904 1156 L 903 1156 L 903 1155 L 902 1155 L 902 1154 L 901 1154 L 901 1153 L 900 1153 L 900 1152 L 899 1152 L 899 1151 L 898 1151 L 898 1150 L 897 1150 L 897 1149 L 896 1149 L 896 1148 L 895 1148 L 895 1147 L 894 1147 L 894 1146 L 893 1146 L 893 1145 L 892 1145 L 892 1144 L 891 1144 L 891 1143 L 890 1143 L 890 1142 L 889 1142 L 889 1141 L 888 1141 L 888 1140 L 887 1140 L 887 1139 L 886 1139 L 886 1138 L 885 1138 L 885 1137 L 884 1137 L 884 1136 L 883 1136 L 883 1135 L 882 1135 L 882 1134 L 881 1134 L 881 1133 L 880 1133 L 880 1132 L 879 1132 L 879 1131 L 878 1131 L 878 1130 L 877 1130 L 877 1129 L 876 1129 L 876 1128 L 875 1128 L 875 1127 L 874 1127 L 874 1126 L 873 1126 L 873 1125 L 872 1125 L 872 1124 L 871 1124 L 871 1123 L 870 1123 L 870 1122 L 869 1122 L 869 1121 L 868 1121 L 868 1120 L 867 1120 L 867 1119 L 866 1119 L 866 1118 L 865 1118 L 865 1117 L 864 1117 L 864 1116 L 863 1116 L 863 1115 L 862 1115 L 862 1114 L 861 1114 L 861 1113 L 860 1113 L 860 1112 L 859 1112 L 859 1111 L 858 1111 L 858 1110 L 857 1110 L 857 1109 L 856 1109 L 856 1108 L 855 1108 L 855 1107 L 854 1107 L 854 1106 L 853 1106 L 853 1105 L 852 1105 L 852 1104 L 851 1104 L 851 1103 L 850 1103 L 850 1102 L 849 1102 L 849 1101 L 848 1101 L 848 1100 L 847 1100 L 847 1099 L 846 1099 L 846 1098 L 845 1098 L 845 1097 L 844 1097 L 844 1096 L 843 1096 L 843 1095 L 842 1095 L 842 1094 L 841 1094 L 841 1092 L 840 1092 L 840 1091 L 839 1091 L 839 1090 L 838 1090 L 838 1089 L 837 1089 L 837 1088 L 836 1088 L 836 1087 L 835 1087 L 835 1086 L 834 1086 L 834 1085 L 833 1085 L 833 1084 L 832 1084 L 832 1083 L 831 1083 L 831 1082 L 830 1082 L 830 1081 L 829 1081 L 829 1080 L 828 1080 L 828 1079 L 827 1079 L 827 1078 L 826 1078 L 826 1077 L 825 1077 L 825 1076 L 824 1076 L 824 1075 L 823 1075 L 823 1074 L 822 1074 L 822 1073 L 821 1073 L 821 1072 L 820 1072 L 820 1071 L 819 1071 L 819 1070 L 818 1070 L 818 1069 L 817 1069 L 817 1068 L 816 1068 L 816 1067 L 815 1067 L 815 1066 L 814 1066 L 814 1065 L 813 1065 L 813 1064 L 812 1064 L 812 1063 L 811 1063 L 811 1062 L 810 1062 L 810 1061 L 809 1061 L 809 1060 L 808 1060 L 808 1059 L 807 1059 L 807 1058 L 806 1058 L 806 1057 L 805 1057 L 805 1056 L 804 1056 L 804 1055 L 803 1055 L 803 1054 L 802 1054 L 802 1053 L 801 1053 L 801 1052 L 800 1052 L 800 1051 L 799 1051 L 799 1050 L 798 1050 L 798 1049 L 797 1049 L 797 1048 L 796 1048 L 796 1047 L 795 1047 L 795 1046 L 794 1046 L 794 1045 L 793 1045 L 793 1044 L 792 1044 L 792 1043 L 791 1043 L 791 1042 L 790 1042 L 790 1041 L 789 1041 L 789 1040 L 788 1040 L 788 1039 L 787 1039 L 787 1038 L 786 1038 L 786 1037 L 785 1037 L 785 1036 L 784 1036 L 784 1035 L 783 1035 L 783 1034 L 782 1034 L 782 1033 L 781 1033 L 781 1032 L 780 1032 L 780 1031 L 779 1031 L 779 1030 L 778 1030 L 778 1029 L 777 1029 L 777 1028 L 776 1028 L 776 1027 L 775 1027 L 775 1026 L 774 1026 L 774 1025 L 773 1025 L 773 1024 L 772 1024 L 772 1023 L 771 1023 L 771 1022 L 770 1022 L 770 1021 L 769 1021 L 769 1020 L 768 1020 L 768 1019 L 767 1019 L 767 1018 L 766 1018 L 766 1017 L 765 1017 L 765 1016 L 764 1016 L 764 1015 L 763 1015 L 763 1014 L 762 1014 L 762 1013 L 761 1013 L 761 1012 L 760 1012 L 760 1011 L 759 1011 L 759 1010 L 758 1010 L 758 1008 L 757 1008 L 757 1007 L 756 1007 L 756 1006 L 755 1006 L 755 1005 L 754 1005 L 754 1004 L 753 1004 L 753 1003 L 752 1003 L 752 1002 L 751 1002 L 751 1001 L 750 1001 L 750 1000 L 749 1000 L 749 999 L 748 999 L 748 998 L 747 998 L 747 997 L 746 997 L 746 996 L 745 996 L 745 995 L 744 995 L 744 994 L 743 994 L 743 993 L 742 993 L 742 992 L 741 992 L 741 991 L 740 991 L 740 990 L 739 990 L 739 989 L 738 989 L 738 988 L 737 988 L 737 987 L 736 987 L 736 986 L 735 986 L 735 985 L 734 985 L 734 984 L 733 984 L 733 983 L 732 983 L 732 982 L 731 982 L 731 981 L 730 981 L 730 980 L 729 980 L 729 979 L 728 979 L 728 978 L 727 978 L 727 977 L 726 977 L 726 976 L 725 976 L 725 975 L 724 975 L 724 974 L 723 974 L 723 973 L 722 973 L 722 972 L 721 972 L 721 971 L 720 971 L 720 970 L 719 970 L 719 969 L 718 969 L 718 968 L 717 968 L 717 967 L 716 967 L 716 966 L 715 966 L 715 965 L 714 965 L 714 964 L 713 964 L 713 963 L 712 963 L 712 962 L 711 962 L 711 961 L 710 961 L 710 960 L 709 960 L 709 959 L 708 959 L 708 958 L 707 958 L 707 957 L 706 957 L 706 956 L 705 956 L 705 955 L 704 955 L 704 954 L 703 954 L 703 953 L 702 953 L 702 952 L 701 952 L 701 951 L 700 951 L 700 950 L 699 950 L 699 949 L 698 949 L 698 948 L 697 948 L 697 947 L 696 947 L 696 946 L 695 946 L 695 945 L 694 945 L 694 944 L 693 944 L 693 943 L 692 943 L 692 942 L 691 942 L 691 941 L 690 941 L 690 940 L 689 940 L 689 939 L 688 939 L 688 938 L 687 938 L 687 937 L 686 937 L 686 936 L 685 936 L 685 935 L 684 935 L 684 934 L 683 934 L 683 933 L 682 933 L 682 932 L 681 932 L 681 931 L 680 931 L 680 930 L 679 930 L 679 929 L 678 929 L 678 928 L 677 928 L 677 927 L 676 927 L 676 925 L 675 925 L 675 924 L 674 924 L 674 923 L 673 923 L 673 922 L 672 922 L 672 921 L 671 921 L 671 920 L 670 920 L 670 919 L 669 919 L 669 918 L 668 918 L 668 917 L 667 917 L 667 916 L 666 916 L 666 915 L 665 915 L 665 914 L 664 914 L 664 913 L 663 913 L 663 912 L 662 912 L 662 911 L 661 911 L 661 910 L 660 910 L 660 909 L 659 909 L 659 908 L 658 908 L 658 907 L 657 907 L 657 906 L 656 906 L 656 905 L 655 905 L 655 904 L 654 904 L 654 903 L 653 903 L 653 902 L 652 902 L 652 901 L 651 901 L 651 900 L 650 900 L 650 899 L 649 899 L 649 898 L 648 898 L 648 897 L 647 897 L 647 896 L 646 896 L 646 895 L 645 895 L 645 894 L 644 894 L 644 893 L 643 893 L 643 892 L 642 892 L 642 891 L 641 891 L 641 890 L 640 890 L 640 889 L 639 889 L 639 888 L 638 888 L 638 887 L 637 887 L 637 886 L 636 886 L 636 885 L 635 885 L 635 884 L 634 884 L 634 883 L 633 883 L 633 882 L 632 882 L 632 881 L 631 881 L 631 880 L 630 880 L 630 879 L 629 879 L 629 878 L 628 878 L 628 877 L 627 877 L 627 876 L 626 876 L 626 875 L 625 875 L 625 874 L 624 874 L 624 873 L 623 873 L 623 872 L 622 872 L 622 871 L 621 871 L 621 870 L 620 870 L 620 869 L 619 869 L 619 868 L 618 868 L 618 867 L 617 867 L 617 866 L 616 866 L 616 865 L 615 865 L 615 868 L 616 868 L 616 871 L 617 871 L 617 875 L 618 875 L 618 878 L 619 878 L 619 882 L 620 882 L 620 886 L 621 886 L 621 889 L 622 889 L 622 893 L 623 893 L 623 896 L 624 896 L 624 900 L 625 900 L 625 904 L 626 904 L 626 907 L 627 907 L 627 911 L 628 911 L 628 914 L 629 914 L 629 918 L 630 918 L 630 922 L 631 922 L 631 925 L 632 925 L 632 929 L 633 929 L 633 932 L 634 932 L 634 936 L 635 936 L 635 940 L 636 940 L 636 943 L 637 943 L 637 947 L 638 947 L 638 950 L 639 950 L 639 954 L 640 954 L 640 958 L 641 958 L 641 961 L 642 961 L 642 965 L 643 965 L 643 968 L 644 968 L 644 972 L 645 972 L 645 976 L 646 976 L 646 979 L 647 979 L 647 983 L 648 983 L 648 986 L 649 986 L 649 990 L 650 990 L 650 994 L 651 994 L 651 997 L 652 997 L 652 1001 L 653 1001 L 653 1004 L 654 1004 L 654 1008 L 655 1008 L 655 1012 L 656 1012 L 656 1015 L 657 1015 L 657 1019 L 658 1019 L 658 1022 L 659 1022 L 659 1026 L 660 1026 L 660 1030 L 661 1030 L 661 1033 L 662 1033 L 662 1037 L 663 1037 L 663 1040 L 664 1040 L 664 1044 L 665 1044 L 665 1048 L 666 1048 L 666 1051 L 667 1051 L 667 1055 L 668 1055 L 668 1058 L 669 1058 L 669 1062 L 670 1062 L 670 1066 L 671 1066 L 671 1069 L 672 1069 L 672 1073 L 673 1073 L 673 1077 L 674 1077 L 674 1080 L 675 1080 L 675 1084 L 676 1084 L 676 1087 L 677 1087 L 677 1091 L 678 1091 L 678 1095 L 679 1095 L 679 1098 L 680 1098 L 680 1102 L 681 1102 L 681 1105 L 682 1105 L 682 1109 L 683 1109 L 683 1113 L 684 1113 L 684 1116 L 685 1116 L 685 1120 L 686 1120 L 686 1123 L 687 1123 L 687 1127 L 688 1127 L 688 1131 L 689 1131 L 689 1134 L 690 1134 L 690 1138 L 691 1138 L 691 1141 L 692 1141 L 692 1145 L 693 1145 L 693 1149 L 694 1149 L 694 1152 L 695 1152 L 695 1156 L 696 1156 L 696 1159 L 697 1159 L 697 1163 L 698 1163 L 698 1167 L 699 1167 L 699 1170 L 700 1170 L 700 1174 L 701 1174 L 701 1177 L 702 1177 L 702 1181 L 703 1181 L 703 1182 L 702 1182 L 702 1181 L 700 1181 L 700 1180 L 699 1180 L 699 1179 L 698 1179 L 698 1178 L 697 1178 L 697 1177 L 696 1177 L 696 1176 L 695 1176 L 695 1175 L 693 1175 L 693 1174 L 692 1174 L 692 1173 L 691 1173 L 691 1172 L 690 1172 L 690 1171 L 689 1171 L 689 1170 L 688 1170 L 688 1169 L 687 1169 L 687 1168 L 685 1168 L 685 1167 L 684 1167 L 684 1166 L 683 1166 L 683 1165 L 682 1165 L 682 1164 L 681 1164 L 681 1163 L 680 1163 L 680 1162 L 678 1162 L 678 1161 L 677 1161 L 677 1160 L 676 1160 L 676 1159 L 675 1159 L 675 1158 L 674 1158 L 674 1157 L 673 1157 L 673 1156 L 672 1156 L 672 1155 L 670 1155 L 670 1154 L 669 1154 L 669 1153 L 668 1153 L 668 1152 L 667 1152 L 667 1151 L 666 1151 L 666 1150 L 665 1150 L 665 1149 L 664 1149 L 664 1148 L 662 1148 L 662 1147 L 661 1147 L 661 1146 L 660 1146 L 660 1145 L 659 1145 L 659 1144 L 658 1144 L 658 1143 L 657 1143 L 657 1142 L 655 1142 L 655 1141 L 654 1141 L 654 1140 L 653 1140 L 653 1139 L 652 1139 L 652 1138 L 651 1138 L 651 1137 L 650 1137 L 650 1136 L 649 1136 L 649 1135 L 647 1135 L 647 1134 L 646 1134 L 646 1133 L 645 1133 L 645 1132 L 644 1132 L 644 1131 L 643 1131 L 643 1130 L 642 1130 L 642 1129 L 640 1129 L 640 1128 L 639 1128 L 639 1127 L 638 1127 L 638 1126 L 637 1126 L 637 1125 L 636 1125 L 636 1124 L 635 1124 L 635 1123 L 634 1123 L 634 1122 L 632 1122 L 632 1121 L 631 1121 L 631 1120 L 630 1120 L 630 1119 L 629 1119 L 629 1118 L 628 1118 L 628 1117 L 627 1117 L 627 1116 L 625 1116 L 625 1115 L 624 1115 L 624 1114 L 623 1114 L 623 1113 L 622 1113 L 622 1112 L 621 1112 L 621 1111 L 620 1111 L 620 1110 L 619 1110 L 619 1109 L 617 1109 L 617 1108 L 616 1108 L 616 1107 L 615 1107 L 615 1106 L 614 1106 L 614 1105 L 613 1105 L 613 1104 L 612 1104 L 612 1103 L 610 1103 L 610 1102 L 609 1102 L 609 1101 L 608 1101 L 608 1100 L 607 1100 L 607 1099 L 606 1099 L 606 1098 L 605 1098 L 605 1097 L 604 1097 L 604 1096 L 602 1096 L 602 1095 L 601 1095 L 601 1094 L 600 1094 L 600 1093 L 599 1093 L 599 1092 L 598 1092 L 598 1091 L 597 1091 L 597 1090 L 595 1090 L 595 1089 L 594 1089 L 594 1088 L 593 1088 L 593 1087 L 592 1087 L 592 1086 L 591 1086 L 591 1085 L 590 1085 L 590 1084 L 589 1084 L 589 1083 L 587 1083 L 587 1082 L 586 1082 L 586 1081 L 585 1081 L 585 1080 L 584 1080 L 584 1079 L 583 1079 L 583 1078 L 582 1078 L 582 1077 L 580 1077 L 580 1076 L 579 1076 L 579 1075 L 578 1075 L 578 1074 L 577 1074 L 577 1073 L 576 1073 L 576 1072 L 575 1072 L 575 1071 L 574 1071 L 574 1070 L 572 1070 L 572 1069 L 571 1069 L 571 1068 L 570 1068 L 570 1067 L 569 1067 L 569 1066 L 568 1066 L 568 1065 L 567 1065 L 567 1064 L 566 1064 L 566 1063 L 564 1063 L 564 1062 L 563 1062 L 563 1061 L 562 1061 L 562 1060 L 561 1060 L 561 1059 L 560 1059 L 560 1058 L 559 1058 L 559 1057 L 557 1057 L 557 1056 L 556 1056 L 556 1055 L 555 1055 L 555 1054 L 554 1054 L 554 1053 L 553 1053 L 553 1052 L 552 1052 L 552 1051 L 551 1051 L 551 1050 L 549 1050 L 549 1049 L 548 1049 L 548 1048 L 547 1048 L 547 1047 L 546 1047 L 546 1046 L 545 1046 L 545 1045 L 544 1045 L 544 1044 L 542 1044 L 542 1043 L 541 1043 L 541 1042 L 540 1042 L 540 1041 L 539 1041 L 539 1040 L 538 1040 L 538 1039 L 537 1039 L 537 1038 L 536 1038 L 536 1037 L 534 1037 L 534 1036 L 533 1036 L 533 1035 L 532 1035 L 532 1034 L 531 1034 L 531 1033 L 530 1033 L 530 1032 L 529 1032 L 529 1031 L 527 1031 L 527 1030 L 526 1030 L 526 1029 L 525 1029 L 525 1028 L 524 1028 L 524 1027 L 523 1027 L 523 1026 L 522 1026 L 522 1025 L 521 1025 L 521 1024 L 519 1024 L 519 1023 L 518 1023 L 518 1022 L 517 1022 L 517 1021 L 516 1021 L 516 1020 L 515 1020 L 515 1019 L 514 1019 L 514 1018 L 512 1018 L 512 1017 L 511 1017 L 511 1016 L 510 1016 L 510 1015 L 509 1015 L 509 1014 L 508 1014 L 508 1013 L 507 1013 L 507 1012 L 506 1012 L 506 1011 L 504 1011 L 504 1010 L 503 1010 L 503 1009 L 502 1009 L 502 1008 L 501 1008 L 501 1007 L 500 1007 L 500 1006 L 499 1006 L 499 1005 L 497 1005 L 497 1004 L 496 1004 L 496 1003 L 495 1003 L 495 1002 L 494 1002 L 494 1001 L 493 1001 L 493 1000 L 492 1000 L 492 999 L 491 999 L 491 998 L 489 998 L 489 997 L 488 997 L 488 996 L 487 996 L 487 995 L 486 995 L 486 994 L 485 994 L 485 993 L 484 993 L 484 992 L 483 992 L 483 991 L 481 991 L 481 990 L 480 990 L 480 989 L 479 989 L 479 988 L 478 988 L 478 987 L 477 987 L 477 986 L 476 986 L 476 985 L 474 985 L 474 984 L 473 984 L 473 983 L 472 983 L 472 982 L 471 982 L 471 981 L 470 981 L 470 980 L 469 980 L 469 979 L 468 979 L 468 978 L 466 978 L 466 977 L 465 977 L 465 976 L 464 976 L 464 975 L 463 975 L 463 974 L 462 974 L 462 973 L 461 973 L 461 972 L 459 972 L 459 971 L 458 971 L 458 970 L 457 970 L 457 969 L 456 969 L 456 968 L 455 968 L 455 967 L 454 967 L 454 966 L 453 966 L 453 965 L 451 965 L 451 964 L 450 964 L 450 963 L 449 963 L 449 962 L 448 962 L 448 961 L 447 961 L 447 960 L 446 960 L 446 959 L 444 959 L 444 958 L 443 958 L 443 957 L 442 957 L 442 956 L 441 956 L 441 955 L 440 955 L 440 954 L 439 954 L 439 953 L 438 953 L 438 952 L 436 952 L 436 951 L 435 951 L 435 950 L 434 950 L 434 949 L 433 949 L 433 948 L 432 948 L 432 947 L 431 947 L 431 946 L 429 946 L 429 945 L 428 945 L 428 944 L 427 944 L 427 943 L 426 943 L 426 942 L 425 942 L 425 941 L 424 941 L 424 940 L 423 940 L 423 939 L 421 939 L 421 938 L 420 938 L 420 937 L 419 937 L 419 936 L 418 936 L 418 935 L 417 935 L 417 934 L 416 934 L 416 933 L 414 933 L 414 932 L 413 932 L 413 931 L 412 931 L 412 930 L 411 930 L 411 929 L 410 929 L 410 928 L 409 928 L 409 927 L 408 927 L 408 926 L 406 926 L 406 925 L 405 925 L 405 924 L 404 924 L 404 923 L 403 923 L 403 922 L 402 922 L 402 921 L 401 921 L 401 920 L 399 920 L 399 919 L 398 919 L 398 918 L 397 918 L 397 917 L 396 917 L 396 916 L 395 916 L 395 915 L 394 915 L 394 914 L 393 914 L 393 913 L 391 913 L 391 912 L 390 912 L 390 911 L 389 911 L 389 910 L 388 910 L 388 909 L 387 909 L 387 908 L 386 908 L 386 907 L 385 907 L 385 906 L 383 906 L 383 905 L 382 905 L 382 904 L 381 904 L 381 903 L 380 903 L 380 902 L 379 902 L 379 901 L 378 901 L 378 900 L 376 900 L 376 899 L 375 899 L 375 898 L 374 898 L 374 897 L 373 897 L 373 896 L 372 896 L 372 895 L 371 895 L 371 894 L 370 894 L 370 893 L 368 893 L 368 892 L 367 892 L 367 891 L 366 891 L 366 890 L 365 890 L 365 889 L 364 889 L 364 888 L 363 888 L 363 887 L 361 887 L 361 886 L 360 886 L 360 885 L 359 885 L 359 884 L 358 884 L 358 883 L 357 883 L 357 882 L 356 882 L 356 881 L 355 881 L 355 880 L 353 880 L 353 879 L 352 879 L 352 878 L 351 878 L 351 877 L 350 877 L 350 876 L 349 876 L 349 875 L 348 875 L 348 874 L 346 874 L 346 873 L 345 873 L 345 872 L 344 872 L 344 871 L 343 871 L 343 870 L 342 870 L 342 869 L 341 869 L 341 868 L 340 868 L 340 867 L 338 867 L 338 866 L 337 866 L 337 865 L 336 865 L 336 864 L 335 864 L 335 863 L 334 863 L 334 862 L 333 862 L 333 861 L 331 861 L 331 860 L 330 860 L 330 859 L 329 859 L 329 858 L 328 858 L 328 857 L 327 857 L 327 856 L 326 856 L 326 855 L 325 855 L 325 854 L 323 854 L 323 853 L 322 853 L 322 852 L 321 852 L 321 851 L 320 851 L 320 850 L 319 850 L 319 849 L 318 849 L 318 848 L 316 848 L 316 847 L 315 847 L 315 846 L 314 846 L 314 845 L 313 845 L 313 844 L 312 844 L 312 843 L 311 843 L 311 842 L 310 842 L 310 841 L 308 841 L 308 840 L 307 840 L 307 839 L 306 839 L 306 838 L 305 838 L 305 837 L 304 837 L 304 836 L 303 836 L 303 835 L 301 835 L 301 834 L 300 834 L 300 833 L 299 833 L 299 832 L 298 832 L 298 831 L 297 831 L 297 830 L 296 830 L 296 829 L 295 829 L 295 828 L 293 828 L 293 827 L 292 827 L 292 826 L 291 826 L 291 825 L 290 825 L 290 824 L 289 824 L 289 823 L 288 823 L 288 822 L 287 822 L 287 821 L 285 821 L 285 820 L 284 820 L 284 819 L 283 819 L 283 818 L 282 818 L 282 817 L 281 817 L 281 816 L 280 816 L 280 815 L 278 815 L 278 814 L 277 814 L 277 813 L 276 813 L 276 812 L 275 812 L 275 811 L 274 811 L 274 810 L 273 810 L 273 809 L 272 809 L 272 808 L 270 808 L 270 807 L 269 807 L 269 806 L 268 806 L 268 805 L 267 805 L 267 804 L 266 804 L 266 803 L 265 803 L 265 802 L 263 802 L 263 801 L 262 801 L 262 800 L 261 800 L 261 799 L 260 799 L 260 798 L 259 798 L 259 797 L 258 797 L 258 796 L 257 796 L 257 795 L 255 795 L 255 794 L 254 794 L 254 793 L 253 793 L 253 792 L 252 792 L 252 791 L 251 791 L 251 790 L 250 790 L 250 789 L 248 789 L 248 788 L 247 788 L 247 787 L 246 787 L 246 786 L 245 786 L 245 785 L 244 785 L 244 784 L 243 784 L 243 783 L 242 783 L 242 782 L 240 782 L 240 781 L 239 781 L 239 780 L 238 780 L 238 779 L 237 779 L 237 778 L 236 778 L 236 777 L 235 777 L 235 776 L 233 776 L 233 775 L 232 775 L 232 774 L 231 774 L 231 773 L 230 773 L 230 772 L 229 772 L 229 771 L 228 771 L 228 770 L 227 770 L 227 769 L 225 769 L 225 768 L 224 768 L 224 767 L 223 767 L 223 766 L 222 766 L 222 765 L 221 765 L 221 764 L 220 764 L 220 763 L 218 763 L 218 762 L 217 762 L 217 761 L 216 761 L 216 760 L 215 760 L 215 759 L 214 759 L 214 758 L 213 758 L 213 757 L 212 757 L 212 756 L 210 756 L 210 755 L 209 755 L 209 754 L 208 754 L 208 753 L 207 753 L 207 752 L 206 752 L 206 751 L 205 751 L 205 750 L 203 750 L 203 749 L 202 749 L 202 748 L 201 748 L 201 747 L 200 747 L 200 746 L 199 746 L 199 745 L 198 745 L 198 744 L 197 744 L 197 743 L 195 743 L 195 742 L 194 742 L 194 741 L 193 741 L 193 740 L 192 740 L 192 739 L 191 739 L 191 738 L 190 738 L 190 737 L 189 737 L 189 736 L 187 736 L 187 735 L 186 735 L 186 734 L 185 734 L 185 733 L 184 733 L 184 732 L 183 732 L 183 731 L 182 731 L 182 730 L 180 730 L 180 729 L 179 729 L 179 728 L 178 728 L 178 727 L 177 727 L 177 726 L 176 726 L 176 725 L 175 725 L 175 724 L 174 724 L 174 723 L 172 723 L 172 722 L 171 722 L 171 721 L 170 721 L 170 720 L 169 720 L 169 719 L 168 719 L 168 718 L 167 718 L 167 717 L 165 717 L 165 716 L 164 716 L 164 715 L 163 715 L 163 714 L 162 714 L 162 713 L 161 713 L 161 712 L 160 712 L 160 711 L 159 711 L 159 710 L 157 710 L 157 709 L 156 709 L 156 708 L 155 708 L 155 707 L 154 707 L 154 706 L 153 706 L 153 705 L 152 705 L 152 704 L 150 704 L 150 703 L 149 703 L 149 702 L 148 702 L 148 701 L 147 701 L 147 700 L 146 700 L 146 699 L 145 699 L 145 698 L 144 698 L 144 697 L 142 697 L 142 696 L 141 696 L 141 695 L 140 695 L 140 694 L 139 694 L 139 693 L 138 693 L 138 692 L 137 692 L 137 691 L 135 691 L 135 690 L 134 690 L 134 689 L 133 689 L 133 688 L 132 688 L 132 687 L 131 687 L 131 686 L 130 686 L 130 685 L 129 685 L 129 684 L 127 684 L 127 683 L 126 683 L 126 682 L 125 682 L 125 681 L 124 681 L 124 680 L 123 680 L 123 679 L 122 679 L 122 678 L 120 678 L 120 677 L 119 677 L 119 676 L 118 676 L 118 675 L 117 675 L 117 674 L 116 674 L 116 673 L 115 673 L 115 672 L 114 672 L 114 671 L 112 671 L 112 670 L 111 670 L 111 669 L 110 669 L 110 668 L 109 668 L 109 667 L 108 667 L 108 666 L 107 666 L 107 665 L 105 665 L 105 664 L 104 664 L 104 663 L 103 663 L 103 662 L 102 662 L 102 661 L 101 661 L 101 660 L 100 660 L 100 659 L 99 659 L 99 658 L 97 658 L 97 657 L 96 657 L 96 656 L 95 656 L 95 655 L 94 655 L 94 654 L 93 654 L 93 653 L 92 653 L 92 652 L 90 652 L 90 651 L 89 651 L 89 650 L 88 650 L 88 649 L 87 649 L 87 648 L 86 648 L 86 647 L 85 647 L 85 646 L 84 646 L 84 645 L 82 645 L 82 644 L 81 644 L 81 643 L 80 643 L 80 642 L 79 642 L 79 641 L 78 641 L 78 640 L 77 640 L 77 639 L 75 639 L 75 638 L 74 638 L 74 637 L 73 637 L 73 636 L 72 636 L 72 635 L 71 635 L 71 634 L 70 634 L 70 633 L 69 633 L 69 632 L 67 632 L 67 631 L 66 631 L 66 630 L 65 630 L 65 629 L 64 629 L 64 628 L 63 628 L 63 627 L 62 627 L 62 626 L 60 626 L 60 625 L 59 625 L 59 624 L 58 624 L 58 623 L 57 623 L 57 622 L 56 622 L 56 621 L 55 621 L 55 620 L 54 620 L 54 619 L 52 619 L 52 618 L 51 618 L 51 617 L 50 617 L 50 616 L 49 616 L 49 615 L 48 615 L 48 614 L 47 614 L 47 613 L 45 613 L 45 612 L 44 612 L 44 611 L 43 611 L 43 610 L 42 610 L 42 609 L 41 609 L 41 608 L 40 608 L 40 607 L 39 607 L 39 606 L 37 606 L 37 605 L 36 605 L 36 604 L 35 604 L 35 603 L 34 603 L 34 602 L 33 602 L 33 601 L 32 601 L 32 600 L 30 600 L 30 599 L 29 599 L 29 598 L 28 598 L 28 597 L 27 597 L 27 596 L 26 596 L 26 595 L 25 595 L 25 594 L 24 594 L 24 593 L 22 593 L 22 592 L 21 592 L 21 591 L 20 591 L 20 590 L 19 590 L 19 589 L 18 589 L 18 588 L 17 588 L 17 587 L 15 587 L 15 586 L 14 586 L 14 585 L 13 585 L 13 584 L 12 584 L 12 583 L 11 583 L 11 582 L 10 582 L 10 581 L 9 581 L 9 580 L 7 580 L 7 579 L 6 579 L 6 578 L 5 578 L 5 577 L 4 577 L 4 576 L 3 576 L 3 575 L 2 575 L 2 574" stroke-linecap="round" />
</g>
</g>
</g>
</svg>